# xmcd CD database file
#
# Track frame offsets:
#	150
#	13332
#	29378
#	46112
#	59084
#	77976
#	95886
#	112051
#	125807
#	140605
#	160588
#	177914
#	192340
#	204077
#	218454
#	233699
#	249280
#	264622
#	284255
#
# Disc length: 3938 seconds
#
# Revision: 0
# Processed by: cddbd v1.5.1PL2 Copyright (c) Steve Scherf et al.
# Submitted via: CDex 1.51
#
DISCID=150f6013
DTITLE=Billie Holiday - Summertime - The Very Best of Billie Holiday
DYEAR=2005
DGENRE=Jazz
TTITLE0=Summertime
TTITLE1=A Fine Romance
TTITLE2=Stormy Weather
TTITLE3=That Ole' Devil Called Love
TTITLE4=They Can't Take That Away From Me
TTITLE5=God Bless The Child
TTITLE6=Cheek To Cheek
TTITLE7=April In Paris
TTITLE8=Loverman
TTITLE9=Speak Low
TTITLE10=Nice Work If You Can Get It
TTITLE11=Strange Fruit
TTITLE12=Lady Sings The Blues
TTITLE13=What A Little Moonlight Can Do
TTITLE14=Don't Explain
TTITLE15=Body And Soul
TTITLE16=Yesterdays
TTITLE17=Speak Low (Bent Remix)
TTITLE18=Yesterdays (Jounior Boys Remix)
EXTD=YEAR: 2005
EXTT0=
EXTT1=
EXTT2=
EXTT3=
EXTT4=
EXTT5=
EXTT6=
EXTT7=
EXTT8=
EXTT9=
EXTT10=
EXTT11=
EXTT12=
EXTT13=
EXTT14=
EXTT15=
EXTT16=
EXTT17=
EXTT18=
PLAYORDER=
